<svg width="36" height="35" viewBox="0 0 36 35" fill="none" xmlns="http://www.w3.org/2000/svg">
<path d="M17.9316 0.0576172L21.938 2.30498L26.5312 2.36188L28.8772 6.31132L32.8266 8.65723L32.8835 13.2505L35.1309 17.2568L32.8835 21.2632L32.8266 25.8564L28.8772 28.2024L26.5312 32.1518L21.938 32.2087L17.9316 34.4561L13.9253 32.2087L9.33203 32.1518L6.98612 28.2024L3.03668 25.8564L2.97979 21.2632L0.732422 17.2568L2.97979 13.2505L3.03668 8.65723L6.98612 6.31132L9.33203 2.36188L13.9253 2.30498L17.9316 0.0576172Z" fill="#FF8A15"/>
<path d="M19.3065 13.1288V23.7665C19.3055 23.8808 19.3333 23.9936 19.3874 24.0943C19.4416 24.195 19.5202 24.2804 19.6161 24.3427L20.5621 24.9704C20.6537 25.0316 20.7587 25.0699 20.8682 25.0821C20.9778 25.0942 21.0886 25.0799 21.1914 25.0403C21.2942 25.0006 21.386 24.9369 21.4591 24.8544C21.5322 24.7719 21.5843 24.6731 21.6112 24.5663L22.7464 20.0085" stroke="white" stroke-width="2" stroke-linecap="round" stroke-linejoin="round"/>
<path d="M22.7473 20.0088C23.6596 20.0088 24.5345 19.6464 25.1796 19.0013C25.8247 18.3562 26.1871 17.4812 26.1871 16.5689C26.1871 15.6566 25.8247 14.7817 25.1796 14.1366C24.5345 13.4915 23.6596 13.1291 22.7473 13.1291H19.3074C19.3074 13.1291 14.6207 13.1291 10.1145 9.35386C10.0142 9.27092 9.89255 9.2181 9.76351 9.20153C9.63448 9.18496 9.50339 9.20531 9.38545 9.26022C9.26752 9.31514 9.16757 9.40237 9.09721 9.51179C9.02684 9.62122 8.98895 9.74835 8.98792 9.87844V23.2594C8.98895 23.3895 9.02684 23.5167 9.09721 23.6261C9.16757 23.7355 9.26752 23.8227 9.38545 23.8776C9.50339 23.9326 9.63448 23.9529 9.76351 23.9363C9.89255 23.9198 10.0142 23.8669 10.1145 23.784C14.6207 20.0088 19.3074 20.0088 19.3074 20.0088H22.7473Z" stroke="white" stroke-width="2" stroke-linecap="round" stroke-linejoin="round"/>
</svg>
